<?xml version="1.0" standalone="no"?>
<!DOCTYPE svg PUBLIC "-//W3C//DTD SVG 20010904//EN"
 "http://www.w3.org/TR/2001/REC-SVG-20010904/DTD/svg10.dtd">
<svg version="1.0" xmlns="http://www.w3.org/2000/svg"
 width="108.000000pt" height="104.000000pt" viewBox="0 0 108.000000 104.000000"
 preserveAspectRatio="xMidYMid meet">

<g transform="translate(0.000000,104.000000) scale(0.100000,-0.100000)"
fill="#ffffff" stroke="none">
<path d="M700 888 c-15 -16 -20 -35 -20 -75 0 -44 -5 -58 -29 -85 -28 -32 -30
-33 -63 -19 -59 24 -85 24 -132 1 -60 -31 -76 -23 -76 37 0 50 -16 94 -37 101
-8 2 -13 -5 -13 -18 0 -13 -9 -37 -19 -54 -42 -69 -35 -133 24 -210 22 -28 31
-54 55 -141 7 -27 -2 -75 -17 -90 -14 -14 -14 -18 -2 -26 8 -5 23 -8 34 -7 14
2 23 -5 30 -27 10 -31 61 -71 103 -82 37 -9 116 34 172 93 28 29 50 61 50 71
-1 12 -6 7 -14 -13 -21 -48 -145 -144 -185 -144 -13 0 -30 61 -22 76 3 6 21
24 40 40 l34 28 -8 -25 c-4 -13 -10 -30 -13 -38 -4 -11 1 -12 23 -7 33 8 106
77 129 123 18 35 21 79 7 87 -5 4 -7 -3 -4 -14 8 -30 -4 -65 -33 -100 l-27
-31 -14 21 c-11 15 -23 20 -39 17 -13 -2 -25 1 -28 8 -3 8 -22 -4 -53 -32
l-48 -45 -24 52 c-17 38 -20 55 -12 63 6 6 11 22 11 35 0 13 15 41 33 64 l32
40 7 -47 c4 -26 12 -53 18 -59 8 -8 9 -4 1 17 -16 41 -13 142 3 182 19 44 44
47 38 5 -5 -36 19 -77 54 -90 13 -5 24 -14 24 -20 0 -14 64 48 79 77 19 37 13
115 -15 179 -14 32 -22 48 -18 34 27 -99 3 -207 -52 -232 -23 -11 -28 -10 -45
11 -26 32 -24 43 16 91 31 37 35 48 35 100 0 37 5 62 14 69 11 9 15 9 19 -1 3
-7 6 -3 6 10 1 28 -3 28 -29 0z m-140 -183 c22 -27 -6 -104 -53 -146 -33 -29
-41 -44 -42 -70 0 -19 -4 -35 -10 -36 -17 -4 -25 50 -13 84 9 25 9 38 -1 57
-17 31 -8 70 24 102 27 27 76 32 95 9z m-120 -145 c0 -25 -18 -36 -26 -16 -8
21 3 49 16 41 5 -3 10 -15 10 -25z m224 -212 c11 -18 -3 -42 -36 -59 -18 -10
-19 -7 -12 28 4 21 9 42 11 46 7 11 25 4 37 -15z"/>
<path d="M511 613 c-1 -7 -11 -21 -23 -33 -12 -11 -19 -22 -16 -25 9 -9 50 43
45 57 -4 9 -6 9 -6 1z"/>
<path d="M591 545 c0 -17 8 -55 19 -85 10 -30 19 -47 20 -37 0 10 -5 28 -11
39 -6 11 -15 41 -19 67 -6 35 -8 39 -9 16z"/>
<path d="M700 518 c0 -9 5 -20 11 -24 6 -4 9 -19 5 -38 -4 -22 -3 -27 4 -16
14 21 12 52 -5 74 -13 17 -15 17 -15 4z"/>
</g>
</svg>
