<?xml version="1.0" standalone="no"?>
<!DOCTYPE svg PUBLIC "-//W3C//DTD SVG 20010904//EN"
 "http://www.w3.org/TR/2001/REC-SVG-20010904/DTD/svg10.dtd">
<svg version="1.0" xmlns="http://www.w3.org/2000/svg"
 width="480.000000pt" height="520.000000pt" viewBox="0 0 480.000000 520.000000"
 preserveAspectRatio="xMidYMid meet">

<g transform="translate(0.000000,520.000000) scale(0.100000,-0.100000)"
fill="#ffffff" stroke="none">
<path d="M1900 5159 l-45 -23 60 -6 c121 -14 250 -111 280 -212 16 -54 19
-115 9 -167 l-6 -31 -54 50 c-114 103 -262 146 -331 94 -39 -29 -48 -60 -33
-114 l12 -45 12 35 c36 111 197 53 240 -87 7 -22 5 -23 -46 -23 -62 0 -113
-26 -128 -66 -17 -45 -12 -124 12 -173 20 -41 23 -43 26 -21 9 90 48 140 107
140 53 0 73 -26 101 -124 29 -101 44 -135 86 -188 36 -46 57 -53 116 -37 l48
12 -57 56 c-85 85 -86 127 -14 386 44 160 55 216 55 281 0 102 -71 203 -178
252 -81 37 -208 42 -272 11z"/>
<path d="M2676 5160 c-68 -27 -118 -64 -153 -113 -74 -107 -73 -161 7 -449 68
-241 65 -295 -22 -373 -128 -115 -350 -167 -495 -117 -36 13 -85 22 -115 21
l-53 -1 57 -18 c32 -10 78 -30 102 -44 40 -23 55 -26 143 -26 54 1 118 5 143
10 25 4 46 7 47 6 6 -5 -80 -206 -87 -206 -5 0 -41 30 -80 66 l-72 66 -32 -32
-31 -31 75 -69 c41 -37 73 -70 70 -72 -3 -3 -57 -25 -120 -50 l-114 -46 -51
15 c-183 55 -308 176 -331 321 l-7 42 29 -6 c16 -3 92 -18 169 -33 l140 -28
32 36 c17 19 30 37 28 39 -2 2 -17 -4 -34 -13 -31 -15 -31 -15 -31 9 0 23 -2
24 -32 15 -43 -12 -48 -12 -48 5 0 11 -10 13 -40 9 -36 -5 -40 -3 -40 15 0 19
-3 20 -25 10 -22 -10 -29 -7 -72 33 -26 24 -47 46 -45 49 1 3 14 8 28 12 19 5
43 -1 85 -23 69 -34 78 -36 54 -9 -23 25 -14 25 36 -1 46 -23 56 -20 39 10 -6
12 -8 21 -5 21 4 0 40 -16 82 -35 41 -19 80 -32 85 -29 10 6 98 138 98 147 0
2 -78 7 -172 11 -194 8 -366 28 -448 52 -30 8 -103 38 -161 66 l-107 50 -61
-23 -62 -22 46 -27 c25 -14 72 -39 105 -55 59 -28 60 -29 60 -69 0 -95 6 -94
-171 -6 -87 44 -161 80 -163 80 -3 0 -25 -18 -51 -40 l-46 -40 219 -109 219
-110 15 -60 c9 -34 14 -61 13 -61 -2 0 -113 54 -246 120 -134 65 -245 118
-247 116 -2 -2 6 -22 17 -44 29 -58 100 -115 258 -209 354 -211 342 -202 470
-330 68 -67 123 -125 123 -130 -1 -11 -248 -178 -263 -177 -7 1 -58 31 -114
68 -97 63 -103 68 -103 101 0 42 16 84 38 101 10 8 45 13 83 14 55 0 72 -4
110 -28 24 -16 52 -38 62 -50 40 -45 -8 -121 -67 -106 -37 9 -56 49 -34 71 14
13 22 14 49 4 40 -14 47 -9 20 18 -31 31 -76 27 -112 -8 -48 -48 -35 -88 44
-130 l45 -24 69 47 c37 25 79 55 92 65 l24 19 -37 51 c-83 112 -389 308 -632
405 -50 20 -103 36 -116 36 -25 0 -52 -23 -82 -72 l-17 -26 63 -21 c70 -23
128 -55 128 -71 0 -5 -11 -17 -25 -26 -23 -15 -29 -14 -102 10 -43 14 -83 26
-88 26 -13 0 -47 -59 -40 -70 3 -4 15 -10 28 -14 13 -3 40 -13 61 -21 l38 -16
-28 -30 c-27 -28 -30 -29 -91 -23 l-63 7 0 -37 c0 -33 2 -36 30 -36 35 0 47
-19 30 -49 -8 -16 -20 -21 -55 -21 l-45 0 5 -57 c6 -58 45 -700 45 -726 0 -7
52 -51 115 -96 l115 -83 0 -141 0 -142 -100 -73 c-55 -41 -100 -75 -100 -76 0
-1 45 -33 100 -72 88 -61 101 -74 110 -109 6 -22 23 -75 36 -118 28 -85 30
-72 -21 -191 l-16 -39 -65 64 c-58 58 -64 67 -64 105 l0 43 58 7 c31 3 61 9
65 11 5 3 -11 17 -35 30 -155 89 -294 175 -433 267 -181 119 -159 117 -229 19
l-37 -52 73 -54 c40 -29 133 -95 205 -146 73 -51 133 -97 133 -104 1 -7 7 -38
14 -69 8 -32 13 -58 11 -58 -1 0 -26 36 -55 80 l-53 80 -68 0 -68 0 -36 56
c-24 37 -41 54 -50 50 -8 -3 -52 -15 -97 -27 -46 -12 -87 -25 -91 -29 -5 -4
32 -10 81 -14 l89 -7 33 -55 33 -55 66 7 67 6 48 -56 c27 -32 47 -58 45 -60
-2 -2 -65 19 -139 45 -74 27 -140 49 -146 49 -10 0 -19 -17 -51 -96 -2 -7 21
-16 59 -24 154 -30 314 -117 419 -227 30 -32 83 -99 116 -149 34 -49 77 -104
97 -121 75 -67 191 -120 351 -164 97 -26 99 -27 72 -40 -36 -17 -127 -2 -253
41 -49 16 -92 30 -96 30 -5 0 -8 -43 -8 -95 l0 -94 38 -10 c94 -25 92 -25 92
-1 0 15 -9 25 -30 33 -21 8 -30 18 -30 34 0 27 17 29 86 12 l44 -11 0 -54 0
-54 40 0 40 0 0 45 0 45 48 -1 c26 0 92 -6 147 -12 92 -11 100 -14 103 -34 3
-21 -1 -23 -37 -23 -34 0 -41 -3 -41 -19 0 -27 4 -28 94 -32 l80 -4 13 74 c12
61 12 76 1 82 -7 5 -50 9 -95 9 -45 0 -85 4 -88 10 -3 5 -3 10 2 10 4 0 16 7
26 14 17 13 14 20 -49 105 l-68 91 -106 36 c-58 20 -111 38 -119 41 -11 5 -13
-6 -7 -58 4 -35 12 -66 17 -70 15 -9 160 -41 165 -36 14 14 -15 38 -64 52 -82
23 -82 23 -82 40 0 18 16 18 100 -3 l64 -17 17 -55 c9 -30 16 -56 14 -58 -1
-1 -59 11 -128 29 l-126 31 -5 37 c-3 20 -8 57 -12 82 -5 41 -12 51 -54 83
-84 64 -166 160 -204 238 -56 117 -56 118 -1 118 41 0 46 -2 40 -18 -20 -48
-19 -50 42 -62 187 -38 182 -36 228 -79 141 -130 365 -229 726 -321 231 -60
389 -121 403 -156 3 -9 -6 -11 -33 -7 -45 6 -91 -13 -150 -63 l-41 -36 0 70 0
69 -52 7 c-104 12 -110 4 -50 -65 42 -48 62 -80 62 -101 0 -18 -125 108 -146
147 -17 32 -20 33 -112 45 -51 6 -96 10 -98 7 -8 -8 72 -72 136 -107 79 -45
184 -120 176 -127 -6 -6 -200 95 -260 136 -23 16 -60 49 -83 74 -37 40 -49 46
-117 62 -42 9 -81 15 -87 13 -6 -2 22 -35 63 -73 56 -53 103 -85 198 -135 191
-100 308 -172 389 -241 43 -36 72 -55 67 -44 -14 36 -24 152 -17 191 14 74 59
124 113 124 50 0 68 -16 68 -59 0 -38 11 -51 46 -51 11 0 14 16 14 68 0 66 -1
69 -39 106 -26 26 -41 50 -45 75 l-6 38 -347 108 c-377 116 -466 153 -590 242
-167 120 -215 179 -268 326 -66 184 -67 204 -62 1062 3 530 8 788 16 829 6 32
10 61 7 63 -13 13 -190 -125 -221 -173 -15 -23 -14 -26 10 -47 39 -33 46 -79
52 -327 l5 -225 -90 -78 c-50 -42 -93 -77 -97 -77 -15 0 25 504 51 652 19 106
48 153 137 226 98 79 155 102 255 102 87 0 175 -19 208 -46 19 -15 19 -15 -1
-10 -11 2 -43 8 -72 11 -67 9 -134 -19 -152 -62 -9 -22 -11 -217 -8 -839 4
-892 2 -863 69 -1036 77 -201 178 -274 618 -451 440 -177 501 -208 561 -283
29 -36 29 -38 29 -166 l0 -129 -37 7 -37 7 37 -45 c20 -25 37 -49 37 -55 0
-15 -51 -58 -128 -107 l-73 -46 30 -44 c31 -45 95 -106 111 -106 5 0 1 15 -10
32 -25 42 -25 80 0 103 11 10 22 16 24 14 1 -2 18 -76 36 -164 18 -88 36 -163
40 -167 3 -5 23 69 45 162 38 166 39 170 59 156 29 -19 31 -47 6 -95 -11 -23
-17 -41 -12 -41 15 0 78 58 109 103 l33 45 -67 43 c-37 24 -82 59 -101 77
l-33 34 35 43 c20 24 36 47 36 50 0 4 -13 5 -30 1 l-30 -6 0 127 c0 147 6 162
94 227 72 54 285 155 456 217 449 162 584 267 660 514 47 155 50 209 50 1028
0 865 5 812 -75 843 -41 15 -54 16 -112 5 -36 -7 -67 -10 -70 -7 -2 2 22 14
54 27 70 27 222 38 276 20 82 -27 227 -143 261 -209 8 -15 22 -66 30 -113 25
-134 66 -649 52 -649 -3 0 -45 33 -92 73 l-86 72 5 230 c6 253 13 300 52 331
l26 21 -65 69 c-68 74 -197 158 -182 118 26 -67 29 -148 33 -886 4 -682 2
-789 -12 -865 -47 -258 -120 -378 -315 -515 -128 -91 -191 -117 -547 -230
-192 -61 -356 -113 -365 -115 -10 -3 -19 -20 -23 -44 -5 -27 -18 -48 -46 -74
-38 -34 -39 -36 -39 -105 0 -54 3 -70 14 -70 35 0 46 13 46 51 0 43 18 59 68
59 53 0 101 -54 116 -129 5 -30 -6 -138 -20 -185 -4 -12 22 5 67 43 83 70 173
127 369 231 114 60 391 250 365 250 -4 0 -62 -14 -128 -32 -113 -30 -123 -35
-161 -76 -22 -24 -59 -57 -82 -73 -57 -39 -254 -142 -260 -136 -7 7 50 53 104
84 88 49 169 103 192 128 28 30 25 31 -96 14 -76 -11 -82 -13 -98 -44 -21 -39
-146 -165 -146 -147 0 21 20 53 62 101 60 69 51 79 -56 65 l-46 -7 0 -69 0
-70 -41 36 c-59 50 -105 69 -150 63 -27 -4 -36 -2 -33 7 14 35 172 96 401 155
351 90 579 192 717 320 49 46 55 49 160 69 60 12 111 24 114 27 3 3 0 17 -7
31 -14 32 -15 31 29 36 34 3 35 2 32 -27 -7 -57 -50 -164 -86 -214 -49 -66
-145 -142 -236 -185 l-73 -35 86 -3 86 -3 -57 -42 c-50 -38 -218 -110 -229
-100 -2 3 18 28 45 58 31 34 53 50 61 45 9 -6 8 -13 -6 -28 -21 -24 -16 -23
57 17 l55 30 -87 3 -88 3 -30 -35 c-17 -19 -66 -59 -110 -89 l-79 -54 24 -23
c14 -13 23 -25 21 -27 -2 -2 -46 -11 -97 -19 -52 -9 -95 -16 -96 -18 -1 -1 55
-30 125 -65 l127 -63 -44 45 -43 45 38 6 c22 3 71 8 109 11 39 4 78 9 87 11
15 4 17 -4 20 -58 l3 -63 53 71 c35 47 62 74 78 77 31 6 30 -4 -6 -80 -16 -35
-25 -63 -21 -63 16 0 112 92 127 121 15 31 35 119 28 130 -2 3 -43 -9 -91 -29
-99 -39 -197 -52 -257 -32 -20 6 -36 15 -36 19 0 5 24 11 54 15 72 8 218 51
291 85 83 39 141 94 215 203 88 129 144 194 215 246 83 62 206 119 295 138 41
8 76 17 79 19 11 11 -27 37 -77 51 -38 11 -79 15 -131 12 -81 -5 -127 -23
-173 -66 -35 -32 -45 -23 -29 27 21 73 91 162 186 238 119 96 211 143 277 143
50 0 50 0 36 23 -8 12 -39 35 -69 52 -48 26 -64 30 -139 30 -106 0 -124 -9
-244 -124 -91 -87 -157 -137 -271 -205 l-60 -36 40 -1 c22 0 57 -3 77 -7 l38
-7 -71 -83 c-39 -46 -74 -80 -77 -77 -3 3 -18 34 -32 68 l-27 62 28 85 c15 47
33 104 39 127 9 37 21 49 98 104 48 34 91 65 95 69 4 4 -35 39 -88 79 l-95 71
0 148 0 147 110 80 c61 44 110 87 110 95 0 28 39 663 45 723 l5 57 -45 0 c-35
0 -47 5 -55 21 -17 30 -5 49 30 49 28 0 30 3 30 36 l0 37 -63 -7 c-61 -6 -64
-5 -91 23 l-28 30 38 16 c21 8 48 18 61 21 13 4 25 10 28 14 7 11 -27 70 -41
70 -6 0 -44 -11 -84 -25 -40 -14 -77 -25 -80 -25 -4 0 -20 10 -35 22 l-27 21
38 24 c22 12 67 32 102 44 l63 21 -17 26 c-38 60 -57 74 -95 69 -152 -20 -625
-298 -726 -427 -24 -30 -43 -58 -43 -61 0 -4 41 -35 91 -69 l92 -63 34 18 c50
27 83 61 83 85 0 12 -13 35 -29 51 -36 35 -81 39 -112 8 -27 -27 -20 -32 20
-18 27 10 35 9 49 -4 22 -22 3 -62 -34 -71 -59 -15 -107 61 -67 106 10 12 38
34 62 50 38 24 55 28 110 28 72 -1 94 -12 111 -54 14 -37 14 -1497 0 -1584
-15 -93 -54 -205 -89 -260 l-31 -48 -82 27 c-46 15 -120 35 -166 45 -75 17
-82 21 -82 43 0 23 2 24 58 18 31 -3 95 -17 142 -31 47 -13 87 -23 89 -21 2 2
1 19 -3 38 -6 32 -9 34 -79 50 -39 9 -102 22 -139 28 -56 9 -68 14 -68 30 0
22 27 23 170 9 47 -4 86 -6 88 -5 2 2 -3 16 -12 33 -16 31 -49 42 -133 42 -58
0 -60 13 -5 33 70 25 142 84 190 156 23 34 42 69 42 76 0 11 -100 50 -106 42
0 -1 -14 -31 -31 -67 -16 -36 -42 -79 -56 -96 -30 -35 -140 -96 -204 -113
l-42 -11 21 -58 c15 -41 21 -81 22 -145 l0 -87 41 -11 c114 -29 258 -87 250
-100 -13 -19 -159 -97 -315 -167 -150 -66 -306 -145 -447 -224 -29 -17 -53
-27 -53 -24 0 4 31 48 69 99 50 65 66 94 57 99 -7 4 -36 8 -65 10 l-53 3 -62
-139 -61 -139 -3 1036 -2 1036 61 173 c34 95 64 179 69 187 5 10 28 -12 79
-78 40 -50 75 -91 77 -91 8 0 84 52 84 58 0 3 -26 35 -58 71 -31 36 -63 73
-70 82 -11 15 -1 21 94 53 l106 35 117 -74 118 -74 100 98 c107 105 195 167
472 330 177 104 251 163 282 223 11 22 19 42 17 44 -3 2 -114 -50 -247 -116
-134 -66 -244 -120 -246 -120 -1 0 4 27 13 61 l15 60 219 110 219 109 -46 40
c-26 22 -48 40 -51 40 -2 0 -76 -36 -164 -80 l-159 -80 -6 38 c-14 89 -19 80
66 122 43 22 92 48 109 59 l31 18 -62 23 -61 22 -107 -50 c-58 -28 -131 -58
-161 -66 -82 -24 -254 -44 -447 -52 -95 -4 -173 -9 -173 -11 0 -9 88 -141 98
-147 5 -3 44 10 85 29 42 19 78 35 82 35 3 0 1 -9 -5 -21 -17 -30 -7 -33 39
-9 40 20 53 16 29 -8 -19 -19 -2 -14 61 17 42 22 66 28 85 23 14 -4 27 -9 28
-12 2 -3 -19 -25 -45 -49 -43 -40 -50 -43 -72 -33 -22 10 -25 9 -25 -10 0 -18
-4 -20 -40 -15 -30 4 -40 2 -40 -9 0 -17 -5 -17 -48 -5 -30 9 -32 8 -32 -15 0
-24 0 -24 -31 -9 -17 9 -32 15 -34 13 -2 -2 11 -19 28 -39 l32 -36 140 28 c77
15 153 30 169 33 l29 6 -7 -42 c-16 -101 -84 -197 -179 -252 -25 -15 -80 -39
-123 -55 l-79 -29 -122 47 c-68 25 -122 49 -120 53 1 4 35 36 75 72 l72 66
-29 32 -30 33 -75 -74 c-73 -73 -75 -74 -84 -50 -6 13 -31 71 -56 128 -25 57
-46 105 -46 107 0 2 23 15 50 29 107 54 163 130 195 263 22 93 44 122 94 122
23 0 48 -8 64 -21 28 -21 52 -89 44 -120 -9 -35 11 -19 32 24 25 52 28 135 6
177 -20 40 -63 60 -125 60 -49 0 -51 1 -44 23 22 71 82 132 141 143 48 9 83
-10 98 -56 l12 -35 13 45 c15 54 6 85 -33 114 -69 52 -217 9 -331 -94 l-54
-50 -6 31 c-10 52 -7 113 9 167 30 101 159 198 280 212 l60 6 -45 22 c-59 28
-174 29 -244 2z m-233 -1152 c15 -40 40 -112 57 -160 l31 -86 135 -48 c80 -28
130 -50 122 -54 -7 -4 -72 -22 -144 -39 l-131 -33 -48 -181 c-26 -100 -50
-185 -54 -189 -3 -4 -28 78 -55 182 -35 137 -53 190 -65 193 -9 2 -71 19 -139
37 -68 18 -120 36 -115 40 4 4 60 24 123 45 63 20 120 44 126 51 6 8 35 81 65
164 30 82 57 150 60 150 4 0 18 -33 32 -72z m-195 -454 c42 -12 26 -45 -69
-142 l-91 -92 -39 31 c-21 17 -39 35 -39 39 0 8 200 170 210 170 3 0 15 -3 28
-6z m-509 -243 l12 -59 54 -7 c30 -3 57 -10 60 -15 3 -5 -20 -14 -50 -21 -60
-13 -58 -11 -70 -101 -9 -67 -22 -67 -35 -1 -7 32 -14 63 -15 69 -2 6 -31 16
-64 23 -34 7 -59 16 -56 20 2 5 32 14 65 20 56 11 60 14 60 40 0 40 11 91 20
91 4 0 13 -26 19 -59z m410 -270 l12 -59 54 -7 c30 -3 57 -10 60 -15 3 -5 -20
-14 -50 -21 -60 -13 -58 -11 -70 -102 -9 -65 -27 -56 -40 19 l-11 59 -62 13
c-34 8 -60 17 -57 22 2 4 32 13 65 19 56 11 60 14 60 40 0 40 11 91 20 91 4 0
13 -26 19 -59z m-391 -60 c3 -28 1 -33 -13 -27 -9 3 -19 6 -21 6 -2 0 -4 14
-4 31 0 45 34 36 38 -10z m-369 -90 l12 -59 54 -7 c30 -3 57 -10 60 -15 3 -5
-20 -14 -50 -21 -60 -13 -58 -11 -70 -101 -9 -67 -22 -67 -35 -1 -7 32 -14 63
-15 69 -2 6 -31 16 -64 23 -34 7 -59 16 -56 20 2 5 32 14 65 20 56 11 60 14
60 40 0 40 11 91 20 91 4 0 13 -26 19 -59z m376 -32 c0 -28 -4 -35 -22 -37
-20 -3 -23 1 -23 31 0 33 12 48 35 43 6 -2 10 -18 10 -37z m-897 -249 l-3 -61
-72 54 -73 54 73 60 72 61 3 -54 c2 -29 2 -81 0 -114z m902 130 c0 -36 -2 -40
-25 -40 -22 0 -25 4 -25 34 0 19 6 37 13 39 30 13 37 6 37 -33z m2278 -122
c-94 -70 -88 -73 -88 47 l0 106 70 -57 70 -56 -52 -40z m-1890 79 c3 -32 0
-37 -17 -37 -18 0 -21 6 -21 41 0 33 3 40 18 37 12 -2 18 -14 20 -41z m-388
-108 c0 -36 -2 -40 -22 -37 -13 2 -22 6 -20 11 1 4 2 21 2 37 0 23 4 30 20 30
17 0 20 -7 20 -41z m613 -236 c4 -152 6 -278 4 -279 -3 -4 -157 368 -157 379
0 12 131 177 140 177 4 0 10 -125 13 -277z m-205 205 c3 -35 1 -38 -22 -38
-24 0 -26 4 -26 41 0 36 2 40 23 37 18 -2 23 -10 25 -40z m-768 -33 c0 -38 -3
-45 -20 -45 -17 0 -20 7 -20 45 0 38 3 45 20 45 17 0 20 -7 20 -45z m370 -81
c0 -41 -2 -45 -22 -42 -40 5 -38 88 2 88 17 0 20 -6 20 -46z m-360 -54 c0 -36
-2 -40 -25 -40 -22 0 -25 4 -25 40 0 36 3 40 25 40 23 0 25 -4 25 -40z m863
-152 c42 -100 75 -183 74 -185 -2 -1 -63 49 -135 113 -90 77 -130 119 -125
127 21 34 96 127 103 127 3 0 41 -82 83 -182z m-505 60 c-2 -31 -8 -44 -20
-46 -15 -3 -18 4 -18 42 0 40 3 46 21 46 18 0 20 -5 17 -42z m-358 -38 c0 -33
-3 -40 -20 -40 -17 0 -20 7 -20 40 0 33 3 40 20 40 17 0 20 -7 20 -40z m791
-121 c71 -61 129 -112 129 -113 0 -3 -78 11 -298 52 l-94 17 57 78 c31 42 61
77 67 77 5 0 68 -50 139 -111z m-421 1 c0 -36 -2 -40 -25 -40 -22 0 -25 4 -25
40 0 36 3 40 25 40 23 0 25 -4 25 -40z m-370 -15 c0 -28 -4 -35 -20 -35 -15 0
-20 7 -20 28 0 32 7 42 27 42 8 0 13 -12 13 -35z m-540 -75 c0 -38 -3 -70 -7
-70 -5 0 -27 17 -51 38 l-43 37 43 32 c24 18 46 32 51 33 4 0 7 -31 7 -70z
m3160 5 c0 -2 -20 -19 -45 -39 l-45 -37 0 71 0 71 45 -32 c25 -18 45 -33 45
-34z m-1906 -22 l191 -37 -134 -13 c-73 -7 -186 -24 -250 -37 -64 -13 -117
-23 -118 -22 -4 3 108 146 114 146 3 0 91 -17 197 -37z m-704 -38 c0 -31 -3
-35 -25 -35 -22 0 -25 4 -25 35 0 31 3 35 25 35 22 0 25 -4 25 -35z m348 -12
c-2 -27 -8 -39 -20 -41 -15 -3 -18 4 -18 37 0 35 3 41 21 41 17 0 20 -5 17
-37z m612 -97 l0 -65 -52 -5 c-29 -3 -89 -8 -133 -12 -226 -17 -480 -78 -723
-174 l-122 -48 -35 41 c-19 22 -35 46 -35 52 0 22 256 128 436 180 149 43 457
91 612 94 l52 1 0 -64z m-960 -5 c0 -26 -14 -41 -41 -41 -5 0 -9 16 -9 35 0
31 3 35 25 35 21 0 25 -5 25 -29z m960 -200 l0 -79 -77 -6 c-43 -4 -106 -9
-141 -11 l-63 -6 14 33 c28 64 40 88 46 88 3 0 24 -16 46 -35 l40 -34 -37 -1
c-31 0 -36 3 -32 18 4 11 -1 8 -14 -8 -12 -14 -19 -26 -17 -28 6 -6 135 10
134 17 0 7 -114 104 -127 109 -4 1 -26 -36 -49 -82 l-42 -84 -108 -25 c-59
-14 -109 -24 -111 -23 -3 3 37 117 44 124 1 2 22 -7 45 -21 l43 -26 -29 -7
c-19 -5 -30 -3 -33 5 -3 8 -8 6 -18 -6 -21 -28 -17 -32 19 -23 17 5 52 14 76
20 l44 12 -79 43 c-43 24 -82 41 -86 37 -3 -4 -21 -45 -40 -91 l-33 -84 -84
-28 c-45 -16 -91 -31 -101 -34 -17 -5 -16 -1 4 65 11 38 25 70 30 70 4 0 21
-11 37 -24 28 -24 28 -25 8 -31 -13 -4 -25 -2 -29 5 -5 8 -10 2 -14 -15 -4
-15 -6 -28 -4 -30 2 -1 32 7 67 19 l64 22 -72 49 c-39 27 -74 46 -77 42 -4 -3
-19 -41 -34 -84 -15 -43 -30 -78 -32 -78 -17 0 -148 81 -145 89 5 16 176 83
307 121 229 66 380 91 558 94 l102 1 0 -79z m-1371 -159 l32 -63 -48 6 c-26 4
-51 10 -56 14 -4 4 2 31 14 59 12 29 23 51 24 50 2 -2 17 -31 34 -66z m1371
-22 c0 -49 -4 -70 -12 -70 -7 0 -58 -7 -113 -15 -55 -8 -106 -15 -113 -15 -8
0 -4 16 14 48 39 68 39 68 78 41 30 -20 33 -25 18 -31 -29 -11 -42 -9 -42 9 0
15 -2 14 -15 -3 -23 -31 -18 -37 31 -29 93 14 94 16 26 69 l-61 47 -56 -83
-55 -83 -92 -26 c-51 -14 -94 -23 -96 -20 -4 10 45 125 54 128 5 2 24 -7 43
-18 31 -19 33 -22 17 -31 -11 -6 -21 -6 -30 1 -11 9 -15 6 -19 -11 -4 -12 -5
-24 -3 -26 2 -2 29 4 61 13 l57 17 -66 45 c-36 26 -63 49 -61 53 10 17 264 56
378 59 l57 1 0 -70z m1473 28 c10 -23 14 -45 9 -49 -4 -3 -26 -9 -49 -13 l-43
-6 27 55 c15 30 30 55 34 55 3 0 13 -19 22 -42z m-1937 -50 c-57 -130 -70
-158 -78 -158 -11 0 -10 14 3 27 9 9 -7 21 -61 48 -57 29 -75 34 -81 23 -5 -7
-9 -16 -9 -20 0 -4 -14 -2 -31 4 -17 6 -27 14 -22 18 4 4 64 25 133 45 69 20
130 38 135 40 23 8 25 3 11 -27z m-118 -124 c-8 -7 -78 26 -78 36 0 6 18 1 41
-10 23 -12 39 -23 37 -26z m582 -121 c0 -91 -3 -164 -6 -161 -3 3 -29 64 -59
134 -59 142 -59 142 -139 121 l-49 -13 50 -55 c49 -55 99 -122 122 -167 11
-20 4 -18 -48 17 -33 23 -124 74 -202 115 l-141 74 58 22 c101 37 279 74 387
79 l27 1 0 -167z"/>
<path d="M2260 1923 c0 -5 15 -23 32 -42 l31 -34 19 24 c45 57 44 59 -22 59
-33 0 -60 -3 -60 -7z"/>
<path d="M2097 1902 c-16 -7 -14 -11 15 -39 l33 -32 23 39 23 40 -38 -1 c-21
0 -46 -4 -56 -7z"/>
<path d="M1915 1871 c-35 -7 -33 -18 9 -49 l30 -22 18 32 c9 18 17 36 18 41 0
8 -31 8 -75 -2z"/>
<path d="M1750 1838 c-52 -14 -55 -23 -15 -48 20 -12 38 -20 40 -18 2 2 11 21
20 41 17 41 15 42 -45 25z"/>
<path d="M1585 1784 c-22 -8 -47 -17 -55 -20 -11 -4 -3 -12 25 -30 22 -13 43
-24 47 -24 7 0 32 80 26 85 -2 1 -21 -4 -43 -11z"/>
<path d="M1391 1708 l-44 -20 43 -19 c24 -11 45 -17 47 -15 3 2 8 21 13 40 9
42 4 43 -59 14z"/>
<path d="M2835 4121 c-16 -4 -40 -13 -52 -19 -26 -14 -122 -15 -177 -2 -32 7
-47 5 -80 -13 l-41 -21 40 -7 c22 -4 85 -11 141 -14 98 -7 102 -7 148 20 26
15 72 35 104 45 l57 18 -55 0 c-30 0 -68 -3 -85 -7z"/>
<path d="M2533 3230 c4 -18 7 -45 7 -60 0 -26 5 -28 108 -58 59 -17 131 -37
160 -43 46 -9 52 -14 52 -36 0 -25 -1 -25 -56 -18 -31 4 -92 17 -137 31 -45
13 -85 24 -89 24 -11 0 -10 -42 1 -58 9 -15 96 -40 201 -56 67 -11 75 -14 78
-35 4 -23 2 -23 -50 -18 -120 14 -208 19 -208 13 0 -4 7 -20 15 -35 13 -27 19
-29 107 -36 77 -6 89 -9 68 -18 -132 -53 -200 -108 -244 -196 -14 -28 -26 -55
-26 -60 0 -9 98 -37 104 -30 1 2 16 33 33 69 16 36 44 80 63 98 36 36 121 82
188 102 23 7 42 15 42 16 0 2 -9 38 -21 80 -14 52 -20 97 -17 141 l3 65 -105
32 c-58 18 -141 50 -185 72 -44 21 -84 41 -89 43 -5 2 -6 -11 -3 -29z"/>
<path d="M3354 3209 c-56 -27 -139 -59 -186 -71 l-84 -22 -1 -90 c0 -66 -6
-107 -21 -148 l-20 -56 33 -6 c19 -4 65 -22 104 -42 81 -40 142 -103 167 -172
10 -26 21 -51 25 -56 10 -11 109 15 109 28 0 21 -61 116 -97 152 -20 20 -73
54 -117 75 l-80 37 93 7 c88 7 93 9 106 36 8 15 15 31 15 35 0 6 -88 1 -208
-13 -52 -5 -54 -5 -50 18 2 17 10 25 28 27 46 5 227 44 238 51 7 4 15 22 18
41 6 29 5 33 -12 28 -97 -28 -178 -47 -221 -53 -52 -7 -53 -6 -53 18 0 21 6
27 33 32 17 4 89 22 160 42 l127 36 0 36 c0 20 3 46 6 59 4 12 2 22 -2 21 -5
0 -55 -23 -110 -50z"/>
<path d="M2933 2718 l-62 -63 33 -35 c18 -19 47 -48 65 -65 l31 -29 60 59 c33
33 60 63 60 67 0 8 -113 128 -121 128 -2 0 -32 -28 -66 -62z"/>
<path d="M2730 2589 c5 -61 6 -64 35 -69 43 -9 71 -26 149 -88 l69 -55 -29
-25 c-88 -73 -150 -113 -184 -118 l-38 -6 -4 -62 c-2 -33 -4 -61 -3 -61 0 -1
27 1 61 3 l60 4 12 41 c12 47 129 200 144 191 5 -3 36 -40 69 -81 40 -50 61
-87 65 -113 l6 -38 62 -4 c33 -2 62 -4 63 -3 1 0 -1 28 -4 63 -5 52 -9 62 -25
62 -10 0 -36 9 -58 20 -41 21 -160 116 -160 128 0 9 99 88 149 119 20 13 48
23 62 23 25 0 27 3 32 62 3 35 5 63 4 64 -1 1 -30 -1 -63 -4 l-62 -4 -6 -37
c-4 -24 -27 -63 -72 -120 -65 -80 -68 -83 -83 -64 -82 101 -122 161 -127 189
-6 30 -10 34 -39 34 -18 0 -45 3 -61 6 l-29 6 5 -63z"/>
<path d="M2650 2435 l-64 -65 64 -65 65 -65 65 65 65 65 -65 65 -65 65 -65
-65z"/>
<path d="M3210 2435 l-64 -65 64 -65 65 -65 65 65 65 65 -65 65 -65 65 -65
-65z"/>
<path d="M2568 2214 c-27 -8 -48 -20 -48 -27 0 -26 60 -114 104 -155 44 -41
135 -92 164 -92 7 0 10 -4 7 -10 -3 -5 -23 -10 -44 -10 -85 0 -128 -11 -140
-37 -16 -34 -14 -45 7 -39 9 2 68 8 130 11 108 7 112 6 112 -13 0 -17 -10 -22
-67 -31 -109 -18 -207 -43 -215 -55 -4 -6 -8 -24 -8 -40 0 -23 3 -27 18 -21
42 17 208 55 239 55 30 0 34 -3 31 -22 -2 -19 -14 -25 -73 -39 -38 -9 -109
-28 -157 -43 -76 -23 -88 -30 -88 -49 0 -12 -3 -39 -7 -60 l-6 -39 89 45 c84
42 167 73 259 96 l40 10 1 93 c0 69 6 106 21 145 l20 51 -66 22 c-128 41 -212
116 -246 221 -9 27 -20 49 -23 48 -4 0 -28 -7 -54 -15z"/>
<path d="M2932 2157 l-62 -63 65 -64 65 -64 65 64 65 64 -62 63 c-34 35 -65
63 -68 63 -3 0 -34 -28 -68 -63z"/>
<path d="M4490 1780 c-19 -11 -66 -36 -105 -56 -70 -36 -119 -74 -136 -106 -7
-13 0 -11 34 7 24 14 74 31 112 39 39 8 101 29 138 47 61 28 75 31 125 25 l56
-7 -20 22 c-47 52 -140 66 -204 29z"/>
<path d="M870 1373 c1 -5 14 -23 29 -41 l28 -33 22 36 c11 20 21 38 21 41 0 2
-22 4 -50 4 -27 0 -50 -3 -50 -7z"/>
<path d="M3840 1336 c0 -3 10 -21 21 -41 l22 -36 28 33 c15 18 28 36 29 41 0
4 -22 7 -50 7 -27 0 -50 -2 -50 -4z"/>
<path d="M1035 1231 l-40 -6 44 -32 c24 -18 48 -30 53 -27 13 8 10 74 -4 73
-7 -1 -31 -5 -53 -8z"/>
<path d="M3710 1165 c0 -18 5 -37 10 -40 9 -6 96 54 88 60 -2 1 -24 5 -50 8
l-48 7 0 -35z"/>
<path d="M2296 953 c3 -15 18 -39 32 -52 l27 -24 3 22 c4 23 -19 55 -51 72
-15 9 -17 7 -11 -18z"/>
<path d="M2506 951 c-18 -18 -26 -37 -24 -52 l3 -22 27 24 c25 23 47 79 30 79
-5 0 -21 -13 -36 -29z"/>
</g>
</svg>
