<?xml version="1.0" standalone="no"?>
<!DOCTYPE svg PUBLIC "-//W3C//DTD SVG 20010904//EN"
 "http://www.w3.org/TR/2001/REC-SVG-20010904/DTD/svg10.dtd">
<svg version="1.0" xmlns="http://www.w3.org/2000/svg"
 width="900.000000pt" height="580.000000pt" viewBox="0 0 900.000000 580.000000"
 preserveAspectRatio="xMidYMid meet">

<g transform="translate(0.000000,580.000000) scale(0.100000,-0.100000)"
fill="#ffffff" stroke="none">
<path d="M3818 5578 c-236 -116 -428 -215 -428 -219 0 -4 65 -35 144 -68 134
-57 150 -62 213 -60 l68 2 90 87 90 87 330 -37 c182 -21 331 -38 332 -39 1 0
-20 -36 -48 -78 l-49 -78 41 -35 40 -35 -11 -67 -12 -68 36 -64 36 -64 57 -7
c32 -4 231 -31 443 -61 212 -30 482 -68 600 -84 l215 -30 125 -132 c68 -73
154 -164 191 -202 l66 -69 -24 134 c-13 74 -22 137 -20 140 1 4 57 -80 125
-186 l122 -194 0 -145 0 -145 140 -251 139 -252 -10 -81 c-6 -45 -33 -154 -61
-242 -81 -256 -79 -247 -65 -239 7 4 37 28 67 54 30 25 77 63 103 84 l48 39
-54 -114 c-30 -63 -103 -213 -163 -334 l-109 -219 -146 -83 -146 -83 -148
-196 -147 -197 7 -173 c4 -96 10 -174 14 -174 3 0 51 77 106 170 l100 171 143
132 c117 107 169 147 280 214 76 44 138 80 140 78 2 -2 -48 -64 -111 -139
l-114 -136 -10 -248 -9 -247 43 -136 c24 -75 43 -144 43 -153 0 -9 -52 -120
-115 -246 -63 -127 -113 -230 -110 -230 16 0 309 217 316 235 4 11 31 130 59
265 l52 245 -7 170 -6 170 116 150 c105 135 157 197 142 170 -2 -5 -36 -85
-75 -176 l-70 -165 26 -127 c15 -70 29 -127 32 -127 3 0 65 134 138 298 72
163 165 372 207 465 l75 167 -26 418 -25 417 -44 100 c-40 93 -100 295 -93
317 2 5 17 -14 33 -42 26 -44 41 -57 109 -91 43 -22 80 -38 83 -36 2 3 -39 92
-93 198 -80 160 -314 718 -314 749 0 5 -11 17 -25 28 -13 11 -245 210 -516
443 -405 349 -488 424 -471 430 10 4 60 10 111 14 50 4 91 10 91 14 0 3 -143
48 -318 100 -174 52 -472 141 -662 198 l-345 104 -377 -47 c-208 -26 -380 -45
-384 -42 -3 4 5 23 19 45 36 58 58 103 50 103 -5 -1 -200 -96 -435 -212z
m3328 -3169 l14 -131 -82 -101 c-44 -56 -85 -104 -90 -105 -5 -2 -6 49 -2 120
l6 123 66 117 c37 64 69 115 71 113 2 -2 10 -63 17 -136z"/>
<path d="M3911 5084 l-105 -214 19 -53 c40 -113 34 -109 58 -40 21 59 27 66
140 158 65 52 122 95 127 95 4 0 79 -27 166 -61 l158 -61 48 23 48 22 0 74 c0
40 -4 73 -9 73 -5 0 -29 9 -55 21 l-47 20 51 59 c27 32 50 62 50 67 0 18 -164
33 -355 32 l-190 0 -104 -215z"/>
<path d="M3108 5205 l-126 -83 9 -39 c5 -21 19 -78 32 -128 l23 -89 109 -33
c60 -18 110 -31 111 -30 1 1 -24 70 -56 154 l-58 152 30 28 c16 15 44 45 60
66 27 33 29 42 20 63 -7 13 -15 24 -19 23 -5 0 -65 -38 -135 -84z"/>
<path d="M3325 5190 c-61 -54 -79 -76 -77 -93 5 -43 65 -248 70 -242 3 3 20
52 38 108 l32 102 93 57 c52 32 95 62 97 66 2 8 -143 72 -163 72 -6 0 -46 -32
-90 -70z"/>
<path d="M3723 5142 c-34 -10 -65 -20 -68 -24 -6 -6 -65 -269 -65 -290 0 -7
112 -68 125 -68 3 0 5 33 5 74 0 64 7 93 45 197 25 67 45 124 45 126 0 6 -24
1 -87 -15z"/>
<path d="M3494 5036 c-38 -26 -56 -45 -72 -83 -12 -27 -57 -126 -101 -220
l-80 -169 33 -300 c28 -249 35 -350 40 -600 l5 -300 -85 -109 c-57 -73 -83
-114 -78 -124 3 -9 11 -29 16 -44 8 -22 16 -27 36 -25 22 3 28 10 37 53 l10
50 88 8 c48 5 94 6 101 4 7 -3 50 -65 95 -138 79 -127 82 -136 74 -172 -8 -38
-11 -41 -178 -128 -164 -86 -172 -89 -230 -87 l-60 2 0 -134 0 -134 55 -37
c30 -20 92 -59 137 -87 l83 -52 -21 51 c-11 29 -24 60 -30 71 -12 23 -3 27 73
30 l57 3 -41 54 -41 53 52 -3 c28 -2 51 0 51 4 0 5 -11 23 -25 41 -14 18 -25
36 -25 39 0 4 25 7 55 7 30 0 55 4 55 10 0 5 -9 33 -20 61 -12 28 -18 54 -15
57 2 3 24 -2 47 -11 23 -9 44 -15 46 -12 3 3 -2 24 -11 47 -9 23 -16 42 -14
43 10 9 252 55 263 51 33 -13 12 -46 -76 -122 -50 -42 -89 -78 -87 -80 2 -2
61 5 131 16 170 26 162 28 131 -23 -14 -24 -25 -47 -25 -50 0 -4 16 -7 35 -7
41 0 44 -14 13 -47 l-21 -23 152 0 c119 0 152 3 148 13 -3 6 -35 82 -71 167
-59 137 -72 160 -118 203 -56 53 -56 50 14 87 20 11 39 24 43 30 3 5 -5 29
-19 53 -15 24 -26 47 -26 50 0 4 28 7 62 7 l62 0 -37 38 -38 39 67 29 67 29
-57 38 c-31 21 -54 42 -51 46 2 5 25 12 50 15 25 4 45 10 45 13 0 3 -13 21
-30 40 -16 18 -30 38 -30 43 0 4 24 12 53 17 l52 9 -52 34 c-29 19 -53 38 -53
42 0 4 14 17 31 29 l31 22 -53 53 -52 53 33 42 34 42 -32 26 -32 26 46 117 46
118 260 165 c143 91 264 165 269 165 5 0 115 -61 245 -137 l236 -136 216 50
216 50 163 -153 c89 -85 166 -154 171 -154 10 0 352 205 355 213 1 3 -99 117
-222 254 l-223 249 -477 77 c-410 66 -500 78 -652 83 l-176 7 -9 -49 c-9 -47
-12 -50 -129 -140 -66 -51 -127 -93 -135 -93 -8 -1 -65 14 -126 32 -104 30
-116 32 -225 26 -63 -3 -115 -4 -117 -3 -2 1 8 31 22 65 14 35 24 65 22 67 -2
2 -27 -8 -54 -22 l-50 -25 -32 49 c-18 28 -36 50 -41 50 -5 0 -9 -16 -9 -36 0
-44 -1 -44 -121 37 l-92 62 6 138 c4 77 3 139 -1 138 -4 0 -30 -15 -58 -33z
m29 -382 c48 -55 49 -57 12 -109 -22 -30 -33 -56 -30 -69 3 -12 19 -160 36
-331 l31 -310 -26 -279 c-14 -154 -28 -281 -30 -284 -3 -2 -26 11 -53 29 -26
18 -49 33 -50 33 0 1 7 125 16 276 l18 275 -34 320 c-18 176 -33 327 -33 336
0 13 97 149 107 149 2 0 18 -16 36 -36z"/>
<path d="M4048 4726 c-48 -65 -87 -120 -85 -122 1 -2 63 3 137 11 l134 14 79
-35 c92 -40 80 -44 169 58 l49 57 -16 55 c-9 31 -22 56 -28 57 -7 0 -88 6
-181 13 l-170 12 -88 -120z"/>
<path d="M3100 4764 c0 -3 19 -32 41 -66 l41 -60 23 28 c13 16 31 41 39 56
l16 27 -47 6 c-27 3 -63 7 -80 10 -18 2 -33 2 -33 -1z"/>
<path d="M2795 4398 c-181 -104 -343 -196 -358 -204 l-28 -15 -40 87 c-23 47
-44 82 -49 78 -4 -5 -67 -144 -140 -309 -73 -165 -166 -374 -206 -465 l-73
-165 -95 -27 -96 -26 -105 -97 c-58 -54 -105 -98 -105 -100 0 -1 26 -49 57
-106 l57 -104 21 82 c20 82 20 83 78 123 32 22 59 40 61 40 2 0 -16 -51 -40
-113 l-43 -113 7 -140 7 -139 124 -53 c68 -29 125 -51 128 -49 2 3 -7 32 -21
65 -16 38 -30 100 -39 171 l-13 112 40 67 41 67 6 -60 c4 -33 7 -85 8 -116 l1
-56 94 -36 93 -35 94 22 94 23 -80 39 -80 39 -16 118 -15 119 98 49 c54 27
100 49 103 49 3 0 5 -25 5 -55 0 -30 2 -55 5 -55 6 0 135 91 135 96 0 2 -12
26 -27 54 -23 41 -37 53 -80 72 -58 24 -60 27 -47 122 l7 46 57 0 c49 0 63 5
100 33 24 17 50 37 59 44 9 6 99 30 201 53 102 23 242 55 313 71 l127 31 0
186 c0 174 -3 202 -40 412 -22 124 -44 232 -48 241 -6 14 -63 -15 -337 -173z"/>
<path d="M4558 4137 l-197 -132 -42 -93 -42 -93 42 -43 43 -43 -38 -31 c-21
-17 -36 -33 -33 -35 2 -2 132 -21 288 -41 263 -34 302 -40 290 -49 -2 -2 -107
-79 -232 -172 l-228 -168 6 -41 c3 -22 17 -124 30 -226 l24 -185 -71 -72 -71
-71 11 -44 c6 -23 17 -61 25 -82 l13 -39 49 56 c27 31 50 55 52 53 2 -2 -19
-66 -47 -142 -27 -76 -50 -141 -50 -145 0 -7 360 -142 365 -137 2 2 -26 41
-62 87 l-66 83 17 52 c10 28 28 73 40 100 l22 50 81 -115 80 -114 94 -27 c51
-15 94 -27 95 -25 17 17 130 223 124 225 -5 2 -39 -6 -75 -17 -37 -12 -71 -21
-76 -21 -5 0 -30 33 -57 73 l-49 72 44 63 c25 34 51 62 58 62 7 0 48 -7 91
-15 43 -8 80 -13 82 -11 2 3 -20 36 -49 75 l-54 70 -67 0 c-37 1 -69 4 -71 9
-3 4 -2 44 1 89 l4 81 349 379 c192 208 349 381 349 384 0 4 -28 1 -62 -6
-143 -29 -111 -48 -262 153 l-134 177 -198 84 c-110 46 -208 86 -219 87 -12 2
-94 -46 -217 -129z"/>
<path d="M6095 3830 c-148 -87 -271 -163 -273 -168 -1 -4 25 -86 58 -181 33
-95 60 -178 60 -186 0 -7 -23 -27 -51 -45 -29 -17 -48 -35 -43 -40 5 -4 96
-36 202 -70 l192 -62 0 -129 0 -128 -45 19 c-25 11 -103 50 -174 87 l-128 67
-184 -58 c-101 -32 -191 -62 -199 -67 -10 -5 -26 -50 -43 -126 -15 -65 -27
-122 -27 -128 0 -5 35 25 78 67 l77 76 83 5 c45 3 82 4 82 2 0 -2 -56 -47
-125 -100 -69 -53 -125 -98 -125 -100 0 -6 39 -154 46 -174 3 -9 22 12 51 55
25 38 49 73 54 78 7 8 201 47 207 41 1 -1 -36 -38 -83 -82 l-85 -80 42 -92 43
-91 45 81 45 81 112 53 111 53 149 -33 c102 -22 149 -36 151 -46 1 -8 -4 -45
-11 -82 -8 -37 -12 -67 -10 -67 4 0 130 67 141 75 2 2 9 36 16 76 12 72 11 76
-17 146 l-29 73 82 247 c45 137 84 253 86 260 3 7 -34 53 -82 103 -48 50 -85
92 -82 95 2 3 71 -4 153 -15 82 -11 150 -18 152 -17 4 5 -414 681 -423 684 -5
2 -130 -69 -279 -157z"/>
<path d="M2400 3430 c0 -21 12 -25 244 -89 60 -17 112 -34 116 -38 4 -4 53
-114 110 -243 56 -129 107 -240 112 -246 4 -6 61 -31 125 -54 l117 -43 153 77
c86 42 153 82 153 90 0 12 -75 220 -86 237 -2 4 -34 -1 -71 -10 -67 -17 -68
-17 -76 -58 -8 -42 -6 -41 -103 -79 -6 -3 -84 103 -175 235 l-164 240 -227 0
c-220 1 -228 0 -228 -19z"/>
<path d="M2280 3033 c0 -17 29 -33 155 -89 l156 -69 126 -170 c70 -93 127
-171 127 -172 1 -1 118 13 224 27 1 0 2 27 2 60 l0 60 -68 34 c-66 33 -69 37
-93 96 -27 71 -39 82 -189 168 l-105 61 -167 7 c-164 7 -168 7 -168 -13z"/>
<path d="M2300 2130 c1 -8 9 -69 19 -135 10 -66 16 -123 14 -127 -2 -5 -31 -8
-64 -8 -32 0 -59 -3 -59 -7 1 -5 48 -57 105 -118 108 -114 111 -124 45 -126
-79 -1 -74 -10 61 -103 71 -48 129 -92 129 -96 0 -5 -21 -16 -46 -26 l-45 -17
88 -90 c48 -49 161 -145 251 -214 89 -69 165 -129 167 -134 6 -9 -10 -14 -89
-28 -33 -6 -61 -13 -63 -14 -2 -2 137 -99 309 -214 l313 -210 265 -92 c146
-51 271 -96 280 -101 11 -6 6 -12 -23 -26 -20 -10 -37 -21 -37 -25 0 -4 51
-24 113 -45 l112 -37 264 2 264 3 111 39 111 39 -70 -66 c-38 -36 -61 -63 -50
-60 11 3 108 21 215 40 107 19 261 47 341 61 l147 27 265 136 266 137 192 164
c105 91 197 170 204 177 6 7 17 70 25 140 12 121 12 151 0 148 -3 -1 -24 -5
-47 -9 l-43 -7 0 232 c0 127 -4 230 -9 228 -4 -1 -50 -48 -102 -103 -71 -75
-119 -141 -193 -261 l-99 -161 -173 -92 -173 -92 -129 15 c-177 22 -164 24
-147 -25 28 -78 45 -70 -271 -136 l-285 -61 -135 74 c-74 41 -137 74 -139 74
-3 0 -5 -22 -5 -50 0 -27 -5 -50 -10 -50 -6 0 -86 38 -178 85 l-167 84 -100
116 c-55 64 -110 129 -123 143 l-23 27 6 -99 c5 -80 4 -97 -7 -90 -7 4 -132
88 -278 185 l-265 177 -74 106 c-41 58 -77 106 -80 106 -4 0 -15 -13 -24 -30
-10 -16 -21 -30 -25 -30 -4 0 -52 69 -107 153 -54 83 -103 156 -107 162 -5 5
-6 -41 -2 -103 4 -61 4 -112 1 -112 -3 0 -45 57 -93 127 l-87 127 -14 -39 c-7
-21 -15 -40 -17 -42 -1 -2 -38 53 -81 122 -61 99 -81 125 -94 119 -53 -22 -61
-19 -147 67 -46 46 -84 77 -84 69z"/>
<path d="M5915 1845 c-66 -30 -123 -60 -127 -67 -7 -14 -78 -329 -78 -348 0
-7 53 43 117 110 104 108 122 133 164 220 53 111 64 140 52 139 -4 0 -62 -25
-128 -54z"/>
<path d="M6463 1781 l-43 -50 0 -156 c0 -156 0 -157 38 -261 20 -57 39 -104
42 -104 3 0 7 132 8 293 2 160 5 300 8 310 9 30 -9 19 -53 -32z"/>
<path d="M5767 1353 l-157 -158 -188 -6 -187 -5 -109 -50 -109 -49 49 -6 c27
-3 146 -12 264 -18 l215 -13 143 30 c78 16 144 31 146 33 2 2 25 46 50 97 l47
93 -3 105 -3 104 -158 -157z"/>
<path d="M6917 1313 c-10 -84 -20 -238 -14 -233 16 15 154 260 149 264 -4 2
-35 6 -68 10 l-61 7 -6 -48z"/>
</g>
</svg>
