<?xml version="1.0" standalone="no"?>
<!DOCTYPE svg PUBLIC "-//W3C//DTD SVG 20010904//EN"
 "http://www.w3.org/TR/2001/REC-SVG-20010904/DTD/svg10.dtd">
<svg version="1.0" xmlns="http://www.w3.org/2000/svg"
 width="107.000000pt" height="94.000000pt" viewBox="0 0 107.000000 94.000000"
 preserveAspectRatio="xMidYMid meet">

<g transform="translate(0.000000,94.000000) scale(0.100000,-0.100000)"
fill="#ffffff" stroke="none">
<path d="M516 817 c-20 -24 -58 -56 -84 -69 -29 -16 -46 -30 -44 -40 1 -9 -4
-18 -13 -22 -23 -9 -18 -26 9 -26 31 0 86 -51 86 -80 0 -17 -3 -20 -13 -12 -7
6 -22 9 -34 6 -11 -3 -24 -1 -27 5 -5 7 -15 7 -34 0 -19 -7 -28 -7 -30 1 -3 8
-8 7 -18 -1 -8 -7 -17 -9 -20 -6 -9 9 -54 -60 -54 -82 0 -14 6 -17 30 -13 17
2 32 7 35 11 2 4 -9 5 -26 3 -35 -5 -39 15 -9 43 11 10 20 14 20 10 0 -5 7 0
15 11 14 19 14 18 15 -3 0 -13 5 -23 11 -23 6 0 9 -7 5 -15 -5 -13 -2 -14 15
-4 19 10 65 7 107 -8 13 -5 14 -3 5 7 -15 17 -5 40 18 40 15 0 17 -5 13 -28
-5 -22 0 -31 27 -51 25 -18 31 -20 26 -7 -4 9 1 35 9 56 16 39 15 64 -2 105
-6 15 5 11 47 -19 52 -37 38 -20 -36 42 l-27 23 5 -28 c3 -15 9 -40 12 -54 8
-32 -18 -99 -39 -99 -20 0 -21 34 -1 50 26 21 18 65 -16 94 -27 23 -29 31 -6
27 13 -2 8 16 -8 29 -11 9 -13 16 -6 23 7 7 17 4 32 -9 22 -19 22 -19 17 7
l-5 27 116 7 c129 7 179 24 226 76 16 18 30 27 34 21 4 -7 13 -5 25 4 19 13
18 14 -10 14 -21 0 -40 -10 -60 -31 -52 -56 -131 -81 -171 -56 -6 4 -13 1 -16
-5 -3 -11 -9 -11 -26 0 -18 10 -21 10 -21 -3 0 -8 -9 -15 -20 -15 -12 0 -20 7
-20 18 0 9 -6 34 -14 55 l-13 39 -37 -45z m-136 -267 c0 -19 -20 -27 -33 -13
-8 7 11 33 24 33 5 0 9 -9 9 -20z m49 -16 c-9 -11 -15 -12 -23 -4 -8 8 -6 15
9 26 23 17 34 2 14 -22z"/>
<path d="M871 799 c-36 -49 -64 -60 -165 -69 -52 -4 -102 -13 -113 -20 -17
-11 -17 -11 2 -5 11 4 50 9 87 11 91 4 138 18 183 54 21 17 42 30 46 30 14 0
10 17 -5 23 -7 3 -23 -7 -35 -24z"/>
<path d="M901 744 c-1 -17 -4 -46 -7 -63 -6 -28 -4 -31 17 -31 21 1 22 2 8 13
-11 8 -14 23 -11 49 2 20 2 43 -1 50 -3 7 -6 -1 -6 -18z"/>
<path d="M667 696 c-16 -13 -13 -15 30 -25 34 -8 64 -9 103 -2 l55 10 -56 -4
c-77 -7 -123 3 -108 21 15 18 -1 18 -24 0z"/>
<path d="M630 654 c79 -21 160 -32 160 -22 0 4 -16 8 -35 8 -18 0 -60 7 -92
15 -31 8 -64 15 -73 14 -8 -1 10 -8 40 -15z"/>
<path d="M868 623 c15 -6 16 -67 1 -96 -17 -32 -61 -77 -76 -77 -11 0 -11 -4
-1 -20 15 -23 30 -27 22 -5 -4 9 4 24 21 37 34 27 55 75 55 128 0 32 -4 40
-17 39 -11 0 -13 -3 -5 -6z"/>
<path d="M687 574 c37 -44 82 -70 105 -61 7 3 4 6 -8 6 -25 1 -70 34 -85 63
-11 20 -9 21 35 16 26 -3 55 -13 65 -22 22 -20 38 -21 21 -2 -14 18 -60 33
-122 39 l-47 4 36 -43z"/>
<path d="M590 524 c0 -47 5 -67 21 -88 12 -15 23 -25 26 -22 3 2 -5 14 -16 25
-15 15 -21 34 -21 67 l0 45 30 -21 c17 -12 37 -36 45 -53 11 -24 13 -26 9 -7
-3 14 -26 45 -50 70 l-44 45 0 -61z"/>
<path d="M690 528 c0 -4 11 -24 25 -44 l26 -38 -25 -23 c-14 -13 -28 -23 -31
-23 -3 0 -18 -11 -33 -25 -33 -31 -36 -31 -51 1 -6 15 -14 24 -17 21 -4 -3 3
-19 15 -35 31 -45 27 -61 -12 -46 -9 3 -13 14 -11 27 2 12 -1 7 -8 -11 -12
-34 -66 -97 -76 -88 -3 3 1 12 8 21 8 10 9 15 1 15 -6 0 -11 -4 -11 -10 0 -5
-11 -17 -25 -26 -21 -13 -31 -15 -50 -6 -19 9 -32 8 -59 -3 -44 -19 -66 -19
-66 -1 0 16 21 26 57 26 22 0 23 2 9 15 -8 8 -19 15 -25 15 -6 0 -11 7 -11 15
0 8 -6 15 -14 15 -8 0 -17 14 -21 30 -9 41 -25 28 -25 -21 0 -29 -4 -39 -16
-39 -15 0 -15 -2 0 -22 9 -13 19 -31 23 -40 3 -10 11 -18 17 -18 6 0 19 -9 29
-20 9 -11 24 -20 32 -20 8 0 15 -4 15 -9 0 -15 109 -24 125 -11 8 6 19 9 25 5
7 -4 18 2 27 14 8 12 22 20 31 19 12 -2 18 5 20 25 2 15 9 27 18 27 8 0 14 10
14 23 0 13 3 27 8 31 4 4 7 20 7 34 0 18 7 30 23 37 12 5 22 13 22 17 0 5 6 8
13 8 7 0 19 9 27 20 8 11 20 20 27 20 11 0 10 6 -1 28 -18 33 -55 80 -56 70z
m-93 -243 c3 -9 3 -19 -1 -22 -7 -7 -36 16 -36 28 0 15 30 10 37 -6z m-309
-17 c-6 -18 -25 -20 -31 -3 -5 10 0 15 14 15 12 0 19 -5 17 -12z m282 -39 c0
-24 -12 -24 -33 -1 -13 14 -14 21 -5 30 15 15 38 -3 38 -29z m-105 -3 c54 8
80 -7 64 -37 -13 -26 -29 -24 -30 4 0 21 0 21 -10 -3 -11 -27 -26 -40 -48 -40
-7 0 -11 6 -8 15 5 11 0 13 -25 8 -28 -6 -30 -4 -23 18 6 20 5 22 -6 12 -14
-14 -49 -18 -49 -5 0 16 55 39 73 30 10 -5 38 -6 62 -2z"/>
<path d="M370 490 c0 -5 5 -10 10 -10 6 0 10 -5 10 -10 0 -6 -10 -8 -24 -4
-13 3 -40 -2 -61 -10 -32 -14 -36 -14 -31 -1 3 8 2 15 -3 15 -5 0 -11 -11 -13
-24 l-5 -23 42 18 c44 20 116 20 123 0 2 -6 8 -11 13 -11 16 0 -8 36 -36 54
-14 9 -25 12 -25 6z"/>
<path d="M450 441 c0 -7 -13 -17 -30 -22 -22 -8 -30 -17 -30 -34 0 -13 4 -26
9 -30 6 -3 9 7 8 22 -1 19 3 28 16 31 16 3 18 -2 15 -34 -3 -35 -5 -37 -40
-38 -33 -1 -37 2 -32 18 4 12 2 16 -5 12 -13 -9 -15 -43 -2 -51 5 -3 12 -1 16
5 11 17 35 11 35 -9 0 -25 16 -36 24 -16 4 10 14 13 34 9 60 -12 96 35 61 80
-10 13 -19 29 -19 36 0 6 -5 8 -11 5 -5 -4 -19 1 -30 11 -12 11 -19 13 -19 5z
m31 -60 c2 -24 2 -24 6 -3 5 27 20 25 40 -4 11 -17 11 -23 -1 -39 -12 -16 -19
-18 -43 -10 -25 9 -28 16 -31 59 -3 44 -1 48 12 37 9 -8 17 -25 17 -40z"/>
</g>
</svg>
