<?xml version="1.0" standalone="no"?>
<!DOCTYPE svg PUBLIC "-//W3C//DTD SVG 20010904//EN"
 "http://www.w3.org/TR/2001/REC-SVG-20010904/DTD/svg10.dtd">
<svg version="1.0" xmlns="http://www.w3.org/2000/svg"
 width="147.000000pt" height="124.000000pt" viewBox="0 0 147.000000 124.000000"
 preserveAspectRatio="xMidYMid meet">

<g transform="translate(0.000000,124.000000) scale(0.100000,-0.100000)"
fill="#ffffff" stroke="none">
<path d="M490 949 c-41 -57 -73 -146 -66 -184 7 -36 48 -77 166 -165 47 -35
107 -83 134 -107 26 -24 53 -43 58 -43 6 0 -8 15 -30 33 -23 17 -54 52 -70 77
-16 25 -64 77 -107 117 -74 69 -77 73 -73 110 3 21 8 47 12 58 5 13 2 11 -8
-5 -27 -44 -20 -86 22 -133 40 -43 58 -77 43 -77 -20 0 -119 91 -131 121 -12
28 -11 39 4 83 17 49 66 136 76 136 3 0 11 -9 18 -20 9 -15 9 -25 0 -44 -10
-23 -7 -29 42 -73 73 -66 82 -67 14 -1 -39 38 -53 58 -49 70 4 9 13 14 21 11
8 -3 14 -1 14 5 0 5 7 13 15 16 13 5 15 0 10 -27 -5 -24 -2 -37 9 -46 9 -8 16
-10 17 -5 0 5 1 28 3 52 3 48 -5 58 -33 42 -17 -9 -23 -6 -37 15 -23 35 -39
31 -74 -16z"/>
<path d="M648 856 c3 -23 16 -46 43 -72 44 -43 53 -72 17 -53 -22 11 -22 11
-6 -7 14 -14 21 -15 29 -7 14 14 34 0 127 -89 54 -52 62 -65 62 -97 0 -20 -9
-47 -20 -61 -11 -14 -20 -37 -20 -52 0 -33 -6 -34 -39 -9 -22 17 -24 23 -18
74 8 67 -3 100 -48 147 -18 19 -35 44 -38 55 -4 15 -5 14 -6 -7 0 -15 4 -30 9
-33 8 -5 7 -11 -1 -21 -18 -21 -3 -59 36 -88 19 -15 35 -34 35 -43 0 -14 -3
-14 -22 3 l-23 19 23 -26 c25 -29 28 -49 10 -68 -11 -10 -6 -18 21 -41 34 -29
110 -61 140 -59 9 0 -3 6 -26 14 -51 15 -133 62 -133 75 0 15 5 13 56 -19 64
-41 100 -48 127 -24 51 45 55 46 67 23 14 -26 0 -47 -45 -66 -24 -10 -26 -13
-10 -14 12 0 26 5 31 10 7 7 21 -2 44 -25 38 -39 55 -43 68 -18 13 26 5 41
-34 59 -19 9 -34 24 -34 34 0 22 -33 52 -51 45 -8 -3 -31 9 -52 26 -36 29 -37
33 -37 94 l0 64 -100 87 c-55 48 -100 93 -100 101 0 7 -6 12 -12 11 -7 -2 -12
5 -11 15 0 12 -4 16 -13 13 -9 -3 -15 6 -20 29 -8 46 -31 47 -26 1z m167 -303
c10 -34 -18 -29 -49 8 -21 25 -24 34 -15 46 11 12 16 11 35 -9 12 -13 25 -33
29 -45z m133 -144 c33 -31 34 -49 4 -49 -29 0 -62 30 -62 56 0 32 18 30 58 -7z
m132 -74 c7 -9 10 -18 7 -22 -8 -7 -37 15 -37 28 0 14 16 11 30 -6z m52 -27
c12 -33 -19 -51 -41 -25 -8 10 -7 17 1 25 16 16 35 15 40 0z"/>
<path d="M852 504 c-11 -12 -10 -14 3 -14 8 0 15 -5 15 -12 0 -6 2 -9 5 -6 3
3 2 14 -2 25 -7 18 -10 19 -21 7z"/>
</g>
</svg>
